<svg xmlns="http://www.w3.org/2000/svg" viewBox="0 0 900 520" role="img" aria-label="Indian festival gifts with flowers and natural decoration">
  <defs>
    <linearGradient id="bg" x1="0" x2="1" y1="0" y2="1">
      <stop offset="0" stop-color="#fdf4df"/>
      <stop offset="0.5" stop-color="#f7dfb7"/>
      <stop offset="1" stop-color="#dcebcf"/>
    </linearGradient>
    <linearGradient id="box" x1="0" x2="1">
      <stop offset="0" stop-color="#b86f38"/>
      <stop offset="1" stop-color="#d99b56"/>
    </linearGradient>
    <filter id="shadow" x="-20%" y="-20%" width="140%" height="140%">
      <feDropShadow dx="0" dy="16" stdDeviation="18" flood-color="#3c2d1f" flood-opacity="0.22"/>
    </filter>
  </defs>
  <rect width="900" height="520" fill="url(#bg)"/>
  <circle cx="120" cy="82" r="54" fill="#f1b24a" opacity="0.38"/>
  <circle cx="780" cy="110" r="86" fill="#2f7a48" opacity="0.12"/>
  <path d="M0 390 C160 320 290 380 420 338 C570 286 720 315 900 252 L900 520 L0 520 Z" fill="#f7efe0"/>
  <g filter="url(#shadow)">
    <rect x="275" y="190" width="350" height="210" rx="16" fill="url(#box)"/>
    <rect x="275" y="245" width="350" height="52" fill="#f6d58e" opacity="0.88"/>
    <rect x="424" y="190" width="54" height="210" fill="#f6d58e"/>
    <path d="M421 190 C354 126 296 151 306 199 C319 246 383 226 450 190 C517 226 581 246 594 199 C604 151 546 126 479 190 Z" fill="#f6d58e"/>
  </g>
  <g filter="url(#shadow)">
    <rect x="96" y="238" width="180" height="142" rx="12" fill="#276f43"/>
    <rect x="96" y="282" width="180" height="35" fill="#e9c36a"/>
    <rect x="171" y="238" width="30" height="142" fill="#e9c36a"/>
    <path d="M170 238 C130 200 99 214 102 244 C106 276 144 263 186 238 C228 263 266 276 270 244 C273 214 242 200 202 238 Z" fill="#e9c36a"/>
  </g>
  <g filter="url(#shadow)">
    <rect x="648" y="250" width="160" height="130" rx="12" fill="#8a5a35"/>
    <rect x="648" y="289" width="160" height="33" fill="#f0d486"/>
    <rect x="715" y="250" width="28" height="130" fill="#f0d486"/>
  </g>
  <g>
    <circle cx="190" cy="408" r="34" fill="#f0a51f"/>
    <circle cx="238" cy="426" r="30" fill="#d94835"/>
    <circle cx="286" cy="410" r="34" fill="#f0a51f"/>
    <circle cx="336" cy="430" r="29" fill="#d94835"/>
    <circle cx="384" cy="412" r="33" fill="#f0a51f"/>
    <circle cx="434" cy="432" r="30" fill="#d94835"/>
    <circle cx="484" cy="410" r="34" fill="#f0a51f"/>
    <circle cx="536" cy="428" r="30" fill="#d94835"/>
    <circle cx="586" cy="410" r="34" fill="#f0a51f"/>
    <circle cx="636" cy="428" r="30" fill="#d94835"/>
    <circle cx="686" cy="408" r="34" fill="#f0a51f"/>
  </g>
  <g fill="#276f43">
    <ellipse cx="168" cy="185" rx="22" ry="50" transform="rotate(-38 168 185)"/>
    <ellipse cx="214" cy="176" rx="18" ry="45" transform="rotate(35 214 176)"/>
    <ellipse cx="690" cy="197" rx="20" ry="48" transform="rotate(-35 690 197)"/>
    <ellipse cx="745" cy="198" rx="20" ry="48" transform="rotate(36 745 198)"/>
  </g>
  <g>
    <ellipse cx="450" cy="112" rx="70" ry="26" fill="#f8e2a0"/>
    <path d="M392 112 C410 78 490 78 508 112 C486 135 414 135 392 112 Z" fill="#d88936"/>
    <ellipse cx="450" cy="98" rx="18" ry="38" fill="#ffcf5c" opacity="0.95"/>
  </g>
  <text x="450" y="470" text-anchor="middle" font-family="Arial, sans-serif" font-size="30" font-weight="700" fill="#15452a">Indian festival gifts with flowers and natural decoration</text>
</svg>
